<svg width="192" height="192" viewBox="0 0 192 192" fill="none" xmlns="http://www.w3.org/2000/svg">
  <defs>
    <linearGradient id="bgGradient192" x1="0%" y1="0%" x2="100%" y2="100%">
      <stop offset="0%" style="stop-color:#1a1a1a;stop-opacity:1" />
      <stop offset="100%" style="stop-color:#0a1013;stop-opacity:1" />
    </linearGradient>
    <linearGradient id="letterGradient192" x1="0%" y1="0%" x2="100%" y2="100%">
      <stop offset="0%" style="stop-color:#5899bd;stop-opacity:1" />
      <stop offset="50%" style="stop-color:#24acfc;stop-opacity:1" />
      <stop offset="100%" style="stop-color:#04b475;stop-opacity:1" />
    </linearGradient>
  </defs>
  
  <!-- Background -->
  <rect width="192" height="192" rx="32" fill="url(#bgGradient192)"/>
  
  <!-- Letter B -->
  <path d="M48 36h48c13.2 0 24 10.8 24 24 0 6.6-2.4 12.6-6.6 16.8 4.2 4.2 6.6 10.2 6.6 16.8 0 13.2-10.8 24-24 24H48V36zm18 18v24h30c3.6 0 6-2.4 6-6s-2.4-6-6-6H66zm0 42v24h30c3.6 0 6-2.4 6-6s-2.4-6-6-6H66z" fill="url(#letterGradient192)"/>
  
  <!-- Accent dot -->
  <circle cx="144" cy="48" r="12" fill="#04b475"/>
</svg> 