<?xml version="1.0" encoding="UTF-8"?>
<svg version="1.1" xmlns="http://www.w3.org/2000/svg" width="500" height="500">
<path d="M0 0 C1.051875 0.00644531 2.10375 0.01289062 3.1875 0.01953125 C6 0.1875 6 0.1875 9 1.1875 C11.08334429 1.20720731 13.16730719 1.18069992 15.25 1.125 C20.36580371 1.07957666 24.20316582 1.52329222 29 3.1875 C29.99 3.3525 30.98 3.5175 32 3.6875 C36.35182745 4.41280458 40.48562016 5.55958641 44.5625 7.25 C46.98614263 8.29519566 46.98614263 8.29519566 49.66796875 8.515625 C53.77971551 9.34472282 57.04859132 10.95320842 60.75 12.875 C61.45229736 13.23295654 62.15459473 13.59091309 62.87817383 13.9597168 C68.3989538 16.80348597 73.73774692 19.89008079 79 23.1875 C79.87398438 23.69796875 80.74796875 24.2084375 81.6484375 24.734375 C84.17080205 26.29304545 85.90825223 28.09575223 88 30.1875 C88.969375 30.80625 89.93875 31.425 90.9375 32.0625 C94.3269515 34.4143643 96.43857826 36.96930345 99 40.1875 C101.41691975 42.66484274 103.88520129 45.07666637 106.375 47.48046875 C113.13248188 54.44912194 118.65098611 62.52440407 123 71.1875 C123.39316406 71.88875 123.78632813 72.59 124.19140625 73.3125 C124.45824219 73.93125 124.72507812 74.55 125 75.1875 C124.67 75.8475 124.34 76.5075 124 77.1875 C124.99 77.5175 125.98 77.8475 127 78.1875 C126.67 79.1775 126.34 80.1675 126 81.1875 C126.99 81.5175 127.98 81.8475 129 82.1875 C130.24227282 84.94416254 131.27949277 87.58722392 132.25 90.4375 C132.53101563 91.20191406 132.81203125 91.96632813 133.1015625 92.75390625 C134.54933662 96.90371424 135.48930253 99.85813219 134 104.1875 C134.66 104.1875 135.32 104.1875 136 104.1875 C140.94328831 123.74302419 142.04358221 144.48333561 137 164.1875 C136.855625 165.3425 136.71125 166.4975 136.5625 167.6875 C136.06406676 170.78886241 135.43711255 172.49291398 134 175.1875 C133.85691406 175.93128906 133.71382813 176.67507813 133.56640625 177.44140625 C132.94971098 180.43131504 132.00512279 183.14152608 130.9375 186 C130.57527344 186.97582031 130.21304687 187.95164062 129.83984375 188.95703125 C129.56269531 189.69308594 129.28554688 190.42914063 129 191.1875 C128.34 191.1875 127.68 191.1875 127 191.1875 C127 191.8475 127 192.5075 127 193.1875 C67.93 193.1875 8.86 193.1875 -52 193.1875 C-53.1268539 181.91896096 -51.52107002 173.43721443 -44.875 164.25 C-43.61615435 162.86526978 -42.32328571 161.51078571 -41 160.1875 C-40.29875 159.445 -39.5975 158.7025 -38.875 157.9375 C-33.78450001 153.06832609 -28.93725263 148.95871344 -22 147.1875 C-21.00528183 146.84482086 -20.01056366 146.50214172 -18.98570251 146.14907837 C-14.12244697 144.76459882 -9.30971943 144.96794558 -4.29125977 145.05224609 C-2.70964806 145.06643837 -2.70964806 145.06643837 -1.09608459 145.08091736 C2.3723229 145.11446519 5.84036327 145.16261642 9.30859375 145.2109375 C11.71996617 145.23711799 14.13134867 145.26238392 16.54273987 145.28677368 C22.87707323 145.35329346 29.21119339 145.43221494 35.54534912 145.51373291 C42.01387372 145.59478093 48.48252305 145.66408139 54.95117188 145.734375 C67.63426282 145.87392915 80.31716808 146.02618813 93 146.1875 C92.88576707 143.12425381 92.75902148 140.06239086 92.625 137 C92.57859375 135.70352539 92.57859375 135.70352539 92.53125 134.38085938 C92.32411413 129.87565412 91.94323608 126.32675083 90 122.1875 C90 120.52083333 90 118.85416667 90 117.1875 C89.690625 116.56875 89.38125 115.95 89.0625 115.3125 C88 113.1875 88 113.1875 87.5625 109.75 C86.96596741 105.97196029 86.0615384 104.35343397 84 101.1875 C83.26320072 99.64946653 82.53502424 98.10729088 81.8125 96.5625 C78.60471373 90.05917647 74.48510727 83.57102342 69.2578125 78.49609375 C68 77.1875 68 77.1875 68 75.1875 C67.01 74.8575 66.02 74.5275 65 74.1875 C65 73.5275 65 72.8675 65 72.1875 C64.44441406 71.93484375 63.88882813 71.6821875 63.31640625 71.421875 C60.63453558 69.99274999 58.35702624 68.27619741 55.9375 66.4375 C48.83802423 61.21729723 41.50790767 56.67761932 33 54.1875 C32.319375 53.836875 31.63875 53.48625 30.9375 53.125 C26.91669504 51.17944921 22.18803135 50.85878476 17.8125 50.125 C16.76707031 49.94839844 15.72164062 49.77179688 14.64453125 49.58984375 C12.11628595 49.13736301 12.11628595 49.13736301 10 49.1875 C4.72 49.1875 -0.56 49.1875 -6 49.1875 C-6 63.7075 -6 78.2275 -6 93.1875 C-10.03347656 93.16429687 -14.06695312 93.14109375 -18.22265625 93.1171875 C-21.4527499 93.10431209 -24.68283624 93.09347125 -27.91294098 93.08399963 C-31.31497913 93.07346877 -34.7169165 93.05941183 -38.11889648 93.03662109 C-42.02847041 93.0105958 -45.93800417 93.00100146 -49.84765625 92.9921875 C-51.05833267 92.98186493 -52.26900909 92.97154236 -53.51637268 92.96090698 C-59.42178455 92.9601249 -64.43594666 93.16311737 -70 95.1875 C-70.80824219 95.41050781 -71.61648437 95.63351563 -72.44921875 95.86328125 C-86.21309607 99.77865996 -98.14822732 105.75978754 -109.1875 114.8671875 C-111 116.1875 -111 116.1875 -113 116.1875 C-113.99 118.1675 -113.99 118.1675 -115 120.1875 C-115.66 120.1875 -116.32 120.1875 -117 120.1875 C-117.37125 121.2703125 -117.37125 121.2703125 -117.75 122.375 C-119 125.1875 -119 125.1875 -120.79296875 127.41015625 C-127.01268153 135.23708684 -132.64322086 144.42127852 -135 154.1875 C-135.25136719 155.1775 -135.50273437 156.1675 -135.76171875 157.1875 C-136.27218797 159.21941652 -136.77086205 161.25435847 -137.25390625 163.29296875 C-138 166.1875 -138 166.1875 -139.07421875 168.953125 C-140.31004744 173.27070372 -140.29145284 177.28345627 -140.25 181.75 C-140.25773437 182.58724609 -140.26546875 183.42449219 -140.2734375 184.28710938 C-140.25933912 188.73867344 -139.98267219 192.11539635 -138 196.1875 C-137.6451046 198.18378664 -137.31421071 200.18440671 -137 202.1875 C-136.6339745 203.6065119 -136.25863964 205.02314853 -135.875 206.4375 C-135 210.1875 -135 210.1875 -136 212.1875 C-135.34 212.1875 -134.68 212.1875 -134 212.1875 C-131 218.1875 -131 218.1875 -130.11328125 220.015625 C-123.3700203 233.17089898 -114.5209762 245.03376596 -102 253.1875 C-101.08863281 253.79464844 -100.17726563 254.40179688 -99.23828125 255.02734375 C-93.90991854 258.50607455 -88.99382915 261.20992313 -82.9375 263.1875 C-80 264.1875 -80 264.1875 -78 265.25 C-75.3697747 266.48291811 -72.87130456 266.78551736 -70 267.1875 C-66.91395106 267.6375488 -64.21270991 268.10573579 -61.296875 269.2265625 C-57.51159331 270.3298555 -54.13637469 270.28778496 -50.25 270.125 C-37.51427431 269.84711898 -28.59216923 273.98235176 -19 282.1875 C-11.85890022 289.152474 -6.69449988 298.31318708 -5 308.1875 C-5.02413273 316.21163273 -5.02413273 316.21163273 -7 318.1875 C-8.35790778 318.28553257 -9.72083427 318.31548179 -11.08227539 318.31689453 C-11.95151138 318.32004669 -12.82074738 318.32319885 -13.71632385 318.32644653 C-14.66716354 318.3244223 -15.61800323 318.32239807 -16.59765625 318.3203125 C-17.57931259 318.32126923 -18.56096893 318.32222595 -19.57237244 318.32321167 C-21.66486678 318.32389457 -23.7573632 318.32203271 -25.84985352 318.31787109 C-28.99695869 318.31260958 -32.14391545 318.31776723 -35.29101562 318.32421875 C-66.7987649 318.33720067 -66.7987649 318.33720067 -82 314.1875 C-83.2375 313.8575 -84.475 313.5275 -85.75 313.1875 C-92.59074884 311.0826542 -99.31394215 308.74035845 -106 306.1875 C-106 305.5275 -106 304.8675 -106 304.1875 C-106.99 304.5175 -107.98 304.8475 -109 305.1875 C-111.9609375 303.859375 -111.9609375 303.859375 -115.375 301.9375 C-116.49648437 301.31359375 -117.61796875 300.6896875 -118.7734375 300.046875 C-126.72 295.4675 -126.72 295.4675 -129 293.1875 C-129.763125 292.754375 -130.52625 292.32125 -131.3125 291.875 C-134.33006801 289.98024799 -136.51990332 287.73286238 -139 285.1875 C-139.99 284.5275 -140.98 283.8675 -142 283.1875 C-142 282.5275 -142 281.8675 -142 281.1875 C-142.556875 280.960625 -143.11375 280.73375 -143.6875 280.5 C-146.6445047 278.82170003 -148.71038324 276.65234254 -151 274.1875 C-151.97453125 273.18589844 -151.97453125 273.18589844 -152.96875 272.1640625 C-166.54391382 257.77630085 -176.42745202 240.13416312 -182 221.1875 C-182.27457031 220.36121094 -182.54914063 219.53492188 -182.83203125 218.68359375 C-185.02196584 211.96276001 -186.08163042 205.18380645 -187 198.1875 C-187.17917969 196.90230469 -187.35835938 195.61710938 -187.54296875 194.29296875 C-188.04167991 190.23949082 -188.19182254 186.2069144 -188.1875 182.125 C-188.18741943 181.39837158 -188.18733887 180.67174316 -188.18725586 179.9230957 C-188.09794363 171.25416851 -187.15247239 162.59673537 -185 154.1875 C-184.7834375 152.455 -184.7834375 152.455 -184.5625 150.6875 C-184.06406676 147.58613759 -183.43711255 145.88208602 -182 143.1875 C-181.86078125 142.45144531 -181.7215625 141.71539062 -181.578125 140.95703125 C-178.80145402 127.65527638 -171.44164436 115.35786637 -164 104.1875 C-163.36191406 103.22457031 -162.72382813 102.26164062 -162.06640625 101.26953125 C-158.49780445 96.00936768 -158.49780445 96.00936768 -157 94.1875 C-156.34 94.1875 -155.68 94.1875 -155 94.1875 C-154.79375 93.65640625 -154.5875 93.1253125 -154.375 92.578125 C-152.42038808 89.17976564 -149.77876283 86.67694072 -147 83.9375 C-146.4534375 83.38320312 -145.906875 82.82890625 -145.34375 82.2578125 C-141.2533867 78.1875 -141.2533867 78.1875 -139 78.1875 C-139 77.5275 -139 76.8675 -139 76.1875 C-137.5390625 74.8984375 -137.5390625 74.8984375 -135.625 73.5625 C-134.99851563 73.11648437 -134.37203125 72.67046875 -133.7265625 72.2109375 C-132 71.1875 -132 71.1875 -130 71.1875 C-130 70.5275 -130 69.8675 -130 69.1875 C-118.48355303 61.11726254 -104.68818452 54.31352138 -91 51.1875 C-89.9275 50.81625 -88.855 50.445 -87.75 50.0625 C-85 49.1875 -85 49.1875 -81.4375 48.6875 C-78.11585274 48.35684827 -78.11585274 48.35684827 -75.6875 47.1875 C-67.79865426 44.25211554 -58.50059938 45.05196627 -50.2109375 45.08984375 C-49.02650055 45.0912587 -47.8420636 45.09267365 -46.62173462 45.09413147 C-42.87279639 45.09968791 -39.1239199 45.11223218 -35.375 45.125 C-32.81901128 45.13002063 -30.26302162 45.13458255 -27.70703125 45.13867188 C-21.47133342 45.14964304 -15.23567113 45.16633724 -9 45.1875 C-9.02356567 43.24931396 -9.02356567 43.24931396 -9.04760742 41.27197266 C-9.10180039 36.48997197 -9.13631126 31.70799855 -9.16479492 26.92578125 C-9.17990586 24.85379476 -9.20039541 22.78184037 -9.22631836 20.70996094 C-9.26260051 17.73624767 -9.27970298 14.76295627 -9.29296875 11.7890625 C-9.30845261 10.85881256 -9.32393646 9.92856262 -9.33988953 8.97012329 C-9.34022942 7.67901138 -9.34022942 7.67901138 -9.34057617 6.36181641 C-9.35056892 5.22264267 -9.35056892 5.22264267 -9.36076355 4.06045532 C-9.24171158 3.44238007 -9.12265961 2.82430481 -9 2.1875 C-5.52207183 -0.13111878 -4.09700748 -0.05522927 0 0 Z M-183 214.1875 C-182 216.1875 -182 216.1875 -182 216.1875 Z " fill="#FBBE23" transform="translate(274,90.8125)"/>
<path d="M0 0 C0 0.99 0 1.98 0 3 C-0.99 3.66 -1.98 4.32 -3 5 C-3.33 4.34 -3.66 3.68 -4 3 C-2.68 2.01 -1.36 1.02 0 0 Z M-5 4 C-4.34 4.66 -3.68 5.32 -3 6 C-3.99 6.66 -4.98 7.32 -6 8 C-6 5 -6 5 -5 4 Z M-9 9 C-8.34 9.33 -7.68 9.66 -7 10 C-8.32 10.99 -9.64 11.98 -11 13 C-10.34 11.68 -9.68 10.36 -9 9 Z " fill="#FDB315" transform="translate(240,244)"/>
<path d="M0 0 C3.3 0 6.6 0 10 0 C10 0.33 10 0.66 10 1 C6.7 1 3.4 1 0 1 C0 0.67 0 0.34 0 0 Z " fill="#FFAA17" transform="translate(217,360)"/>
<path d="M0 0 C0.33 0 0.66 0 1 0 C1 1.98 1 3.96 1 6 C0.67 6 0.34 6 0 6 C0 4.02 0 2.04 0 0 Z " fill="#FF9A05" transform="translate(134,263)"/>
<path d="M0 0 C0.33 0 0.66 0 1 0 C1 1.65 1 3.3 1 5 C0.67 5 0.34 5 0 5 C0 3.35 0 1.7 0 0 Z " fill="#FF9B11" transform="translate(134,276)"/>
<path d="M0 0 C0.33 0 0.66 0 1 0 C1 1.65 1 3.3 1 5 C0.67 5 0.34 5 0 5 C0 3.35 0 1.7 0 0 Z " fill="#FFA50A" transform="translate(365,231)"/>
<path d="M0 0 C0.33 0 0.66 0 1 0 C1 1.65 1 3.3 1 5 C0.67 5 0.34 5 0 5 C0 3.35 0 1.7 0 0 Z " fill="#FF9E06" transform="translate(365,219)"/>
<path d="M0 0 C4 1 4 1 4 1 Z " fill="#FF9809" transform="translate(211,184)"/>
<path d="" fill="#FFAA00" transform="translate(0,0)"/>
<path d="" fill="#FFB500" transform="translate(0,0)"/>
<path d="" fill="#FF8000" transform="translate(0,0)"/>
<path d="" fill="#FF9900" transform="translate(0,0)"/>
<path d="" fill="#FFAA00" transform="translate(0,0)"/>
<path d="" fill="#FFAA00" transform="translate(0,0)"/>
<path d="" fill="#FFFF00" transform="translate(0,0)"/>
<path d="" fill="#FFAA00" transform="translate(0,0)"/>
</svg>
