<svg width="133" height="38" viewBox="0 0 133 38" fill="none" xmlns="http://www.w3.org/2000/svg">
<g clip-path="url(#clip0_27_239)">
<path d="M32.4702 24.7291V22.0181H35.1155V7.65802H32.4702V4.94702H42.4927C43.6757 4.94702 44.7108 5.14966 45.598 5.55494C46.4852 5.96022 47.1808 6.53528 47.6847 7.28012C48.1776 8.02496 48.424 8.90124 48.424 9.90897V10.2047C48.424 11.1029 48.2542 11.8477 47.9147 12.4392C47.5751 13.0198 47.1644 13.4689 46.6824 13.7865C46.2114 14.1042 45.7568 14.3287 45.3187 14.4602V14.9202C45.7568 15.0297 46.2224 15.2488 46.7153 15.5774C47.2191 15.906 47.6463 16.3661 47.9968 16.9576C48.3364 17.5381 48.5062 18.2994 48.5062 19.2414V19.5207C48.5062 20.616 48.2542 21.5471 47.7504 22.3138C47.2356 23.0915 46.5345 23.6885 45.6473 24.1047C44.7491 24.521 43.7195 24.7291 42.5584 24.7291H32.4702ZM38.2044 13.3593H42.1805C43.1444 13.3593 43.9166 13.1184 44.4972 12.6364C45.0777 12.1654 45.368 11.5137 45.368 10.6812V10.4019C45.368 9.56941 45.0832 8.9122 44.5136 8.43024C43.9331 7.94829 43.1554 7.70731 42.1805 7.70731H38.2044V13.3593ZM38.2044 21.9524H42.1805C43.1992 21.9524 43.9988 21.7059 44.5793 21.213C45.1708 20.7311 45.4666 20.0574 45.4666 19.1921V18.9292C45.4666 18.0639 45.1763 17.3847 44.5958 16.8918C44.0262 16.4099 43.2211 16.1689 42.1805 16.1689H38.2044V21.9524Z" fill="#F9F9F9"/>
<path d="M52.0225 24.7291V4.94702H54.9306V24.7291H52.0225Z" fill="#F9F9F9"/>
<path d="M63.5725 25.1234C62.5757 25.1234 61.6885 24.9536 60.9108 24.6141C60.1221 24.2745 59.4978 23.7761 59.0377 23.1189C58.5777 22.4507 58.3477 21.6456 58.3477 20.7036C58.3477 19.7671 58.5777 18.9456 59.0377 18.3213C59.4978 17.6859 60.1276 17.2095 60.9272 16.8918C61.7268 16.5742 62.636 16.4153 63.6546 16.4153H67.8937V15.5117C67.8937 14.7011 67.6527 14.0494 67.1707 13.5565C66.6778 13.0745 65.922 12.8335 64.9033 12.8335C63.8847 12.8335 63.1453 13.0636 62.6195 13.54C62.0938 14.0001 61.7433 14.608 61.568 15.3638L58.857 14.493C59.087 13.7372 59.4485 13.0526 59.9414 12.4392C60.4453 11.8258 61.1079 11.3329 61.9295 10.9605C62.7619 10.5881 63.7642 10.4019 64.9362 10.4019C66.7435 10.4019 68.162 10.8619 69.1916 11.782C70.2322 12.7021 70.7525 14.011 70.7525 15.7088V21.443C70.7525 22.0126 71.0154 22.2974 71.5412 22.2974H72.7242V24.7291H70.5554C69.8982 24.7291 69.3614 24.5593 68.9452 24.2197C68.529 23.8802 68.3208 23.4146 68.3208 22.8232V22.741H67.8937C67.7513 23.0258 67.5267 23.3544 67.22 23.7268C66.9243 24.1102 66.4806 24.4388 65.8892 24.7126C65.3086 24.9755 64.5364 25.107 63.5725 25.107V25.1234ZM63.9997 22.7246C65.1717 22.7246 66.1137 22.3905 66.8257 21.7223C67.5486 21.0542 67.9101 20.1395 67.9101 18.9785V18.6827H63.8354C63.0577 18.6827 62.4333 18.847 61.9623 19.1756C61.4913 19.5152 61.2558 20.0026 61.2558 20.6379C61.2558 21.2842 61.5023 21.7935 61.9952 22.1659C62.4881 22.5384 63.1563 22.7246 63.9997 22.7246Z" fill="#F9F9F9"/>
<path d="M81.6953 25.1234C80.3481 25.1234 79.1377 24.8386 78.0643 24.269C76.9799 23.6994 76.12 22.8834 75.4847 21.8209C74.8494 20.7365 74.5317 19.444 74.5317 17.9434V17.5819C74.5317 16.0703 74.8494 14.7833 75.4847 13.7208C76.12 12.6583 76.9799 11.8368 78.0643 11.2562C79.1377 10.6866 80.3481 10.4019 81.6953 10.4019C83.0317 10.4019 84.1708 10.6428 85.1128 11.1248C86.0548 11.6177 86.8106 12.2694 87.3802 13.08C87.9498 13.8906 88.3222 14.7833 88.4975 15.7581L85.6715 16.3661C85.5729 15.7417 85.3757 15.1721 85.08 14.6573C84.7733 14.1534 84.3461 13.7482 83.7984 13.4415C83.2507 13.1457 82.5661 12.9978 81.7446 12.9978C80.9067 12.9978 80.2002 13.1786 79.5594 13.54C78.9022 13.9125 78.3874 14.4437 78.015 15.1338C77.6425 15.8239 77.4508 16.6563 77.4399 17.6312V17.8776C77.4399 18.8635 77.6316 19.7069 78.015 20.4079C78.3874 21.098 78.9022 21.6237 79.5594 21.9852C80.2057 22.3357 80.9341 22.5165 81.7446 22.5274C82.9714 22.5274 83.9025 22.2098 84.5378 21.5745C85.184 20.9391 85.5893 20.1341 85.7536 19.1592L88.5796 19.8164C88.3606 20.7694 87.9608 21.6511 87.3802 22.4617C86.8106 23.2722 86.0548 23.9185 85.1128 24.4005C84.1708 24.8824 83.0317 25.1234 81.6953 25.1234Z" fill="#F9F9F9"/>
<path d="M91.9473 24.7291V4.94702H94.8554V16.2182H95.299L100.787 10.7962H104.664L97.6157 17.5491L104.878 24.7291H101.05L95.299 18.9292H94.8554V24.7291H91.9473Z" fill="#F9F9F9"/>
<path d="M110.021 24.7291V13.2443H106.127V10.7962H110.021V7.74017C110.021 6.89675 110.278 6.21763 110.793 5.70281C111.297 5.19895 111.976 4.94702 112.831 4.94702H116.412V7.41156H113.751C113.203 7.41156 112.929 7.69088 112.929 8.24951V10.7962H116.955V13.2607H112.929V24.7291H110.021Z" fill="#F9F9F9"/>
<path d="M121.522 37.381V34.8344H129.293C129.819 34.8344 130.088 32.5496 130.098 31.98V22.6917H129.638C129.474 23.0641 129.217 23.4256 128.866 23.7761C128.516 24.1266 128.05 24.4114 127.47 24.6304C126.878 24.8605 126.144 24.9755 125.268 24.9755C124.206 24.9755 123.263 24.74 122.442 24.269C121.61 23.798 120.958 23.1298 120.487 22.2645C120.016 21.3992 119.78 20.3695 119.78 19.1756V10.7961H122.688V18.962C122.688 20.1669 122.99 21.0541 123.592 21.6237C124.195 22.2042 125.032 22.4945 126.106 22.4945C127.289 22.4945 128.247 22.0947 128.981 21.2951C129.704 20.5064 130.066 19.3618 130.066 17.8612V10.7961H132.974V32.5715C132.974 35.4258 132.722 36.105 132.218 36.6088C131.725 37.1236 131.046 37.3756 130.181 37.3646H121.522V37.381Z" fill="#F9F9F9"/>
<path d="M105.507 33V27.4H106.067V32.544H108.715V33H105.507ZM111.596 33.096C111.062 33.096 110.593 32.976 110.188 32.736C109.782 32.4907 109.465 32.152 109.236 31.72C109.012 31.2827 108.9 30.776 108.9 30.2C108.9 29.6293 109.012 29.128 109.236 28.696C109.465 28.2587 109.782 27.9173 110.188 27.672C110.593 27.4267 111.062 27.304 111.596 27.304C112.145 27.304 112.622 27.4267 113.028 27.672C113.433 27.9173 113.745 28.2587 113.964 28.696C114.188 29.128 114.3 29.6293 114.3 30.2C114.3 30.776 114.188 31.2827 113.964 31.72C113.745 32.152 113.433 32.4907 113.028 32.736C112.622 32.976 112.145 33.096 111.596 33.096ZM111.604 32.608C112.025 32.608 112.396 32.512 112.716 32.32C113.036 32.128 113.284 31.8533 113.46 31.496C113.636 31.1333 113.724 30.7013 113.724 30.2C113.724 29.6987 113.636 29.2693 113.46 28.912C113.284 28.5547 113.036 28.28 112.716 28.088C112.396 27.896 112.025 27.8 111.604 27.8C111.182 27.8 110.812 27.896 110.492 28.088C110.172 28.28 109.921 28.5547 109.74 28.912C109.564 29.2693 109.476 29.6987 109.476 30.2C109.476 30.7013 109.564 31.1333 109.74 31.496C109.921 31.8533 110.172 32.128 110.492 32.32C110.812 32.512 111.182 32.608 111.604 32.608ZM117.703 33.096C117.181 33.096 116.722 32.976 116.327 32.736C115.933 32.4907 115.626 32.152 115.407 31.72C115.194 31.2827 115.087 30.776 115.087 30.2C115.087 29.6293 115.197 29.128 115.415 28.696C115.639 28.2587 115.951 27.9173 116.351 27.672C116.757 27.4267 117.234 27.304 117.783 27.304C118.402 27.304 118.919 27.4533 119.335 27.752C119.751 28.0507 120.018 28.4667 120.135 29H119.479C119.405 28.6373 119.218 28.3493 118.919 28.136C118.626 27.9227 118.247 27.816 117.783 27.816C117.357 27.816 116.983 27.912 116.663 28.104C116.349 28.296 116.103 28.5707 115.927 28.928C115.751 29.28 115.663 29.704 115.663 30.2C115.663 30.696 115.749 31.1227 115.919 31.48C116.095 31.8373 116.335 32.112 116.639 32.304C116.949 32.496 117.303 32.592 117.703 32.592C118.333 32.592 118.805 32.4053 119.119 32.032C119.439 31.6587 119.621 31.144 119.663 30.488H117.975V30.032H120.239V33H119.727L119.679 32.008C119.541 32.2373 119.381 32.4347 119.199 32.6C119.023 32.7653 118.813 32.8907 118.567 32.976C118.327 33.056 118.039 33.096 117.703 33.096ZM121.358 33V27.4H121.918V33H121.358ZM123.163 33V27.4H123.723L126.819 32.064V27.4H127.379V33H126.819L123.723 28.328V33H123.163Z" fill="white"/>
<path d="M5.614 11.8642C5.03894 12.9322 4.71034 14.1645 4.71034 15.4625C4.71034 19.7015 8.25928 23.1847 12.5147 23.1847C14.5849 23.1847 16.2608 24.8606 16.2608 26.9472V26.9965H12.5312C6.17263 26.9965 0.931369 21.8867 0.898509 15.5282C0.882078 10.7963 3.70809 6.72154 7.7828 4.93064C9.1958 4.28986 10.7731 3.94482 12.4161 3.94482H16.2608V7.75665H12.4161C11.6932 7.75665 10.9867 7.87166 10.3131 8.0524C8.27571 8.62746 6.58339 10.024 5.614 11.8642Z" fill="#F9F9F9"/>
<path d="M28.6491 11.6671C28.6491 11.941 28.6382 12.2148 28.6163 12.4886C28.5177 13.8359 28.1891 15.1339 27.6798 16.3169H12.416C12.416 14.1974 14.1248 12.4886 16.2278 12.4886H24.788C24.8209 12.2148 24.8373 11.941 24.8373 11.6671C24.8373 7.39524 21.387 3.94488 17.1315 3.94488H16.2607V0.133057H17.1315C18.1502 0.133057 19.136 0.264499 20.0725 0.510953C25.018 1.82538 28.6491 6.31084 28.6491 11.6671Z" fill="#F9F9F9"/>
</g>
<defs>
<clipPath id="clip0_27_239">
<rect width="133" height="38" fill="white"/>
</clipPath>
</defs>
</svg>
